<svg width="50" height="52" viewBox="0 0 50 52" fill="none" xmlns="http://www.w3.org/2000/svg">
<path d="M25 52C38.8071 52 50 40.3594 50 26C50 11.6406 38.8071 0 25 0C11.1929 0 0 11.6406 0 26C0 40.3594 11.1929 52 25 52Z" fill="black"/>
<path d="M25.0322 48.1914C36.817 48.1914 46.3704 38.2559 46.3704 26C46.3704 13.744 36.817 3.80859 25.0322 3.80859C13.2475 3.80859 3.69409 13.744 3.69409 26C3.69409 38.2559 13.2475 48.1914 25.0322 48.1914Z" fill="#F06543"/>
<path d="M13.9564 25.46C16.1 25.46 17.8378 23.6533 17.8378 21.4246C17.8378 19.1959 16.1 17.3892 13.9564 17.3892C11.8127 17.3892 10.075 19.1959 10.075 21.4246C10.075 23.6533 11.8127 25.46 13.9564 25.46Z" fill="black"/>
<path d="M24.5543 19.3298C27.3685 19.3298 29.6499 16.8959 29.6499 13.8936C29.6499 10.8914 27.3685 8.45752 24.5543 8.45752C21.7401 8.45752 19.4587 10.8914 19.4587 13.8936C19.4587 16.8959 21.7401 19.3298 24.5543 19.3298Z" fill="black"/>
<path d="M35.2557 25.46C37.3994 25.46 39.1371 23.6533 39.1371 21.4246C39.1371 19.1959 37.3994 17.3892 35.2557 17.3892C33.112 17.3892 31.3743 19.1959 31.3743 21.4246C31.3743 23.6533 33.112 25.46 35.2557 25.46Z" fill="black"/>
<path d="M23.2628 21.1177H25.8655C28.2098 21.1177 30.115 23.0854 30.115 25.5066V43.876H18.897V25.6267C18.897 23.1387 20.8538 21.1177 23.2628 21.1177Z" fill="black"/>
<path d="M35.0621 26.02C37.4064 26.02 39.3117 27.9877 39.3117 30.4089V40.0539H30.6963V30.529C30.6963 28.0411 32.6532 26.02 35.0621 26.02Z" fill="black"/>
<path d="M13.7755 26.02C16.1198 26.02 18.025 27.9877 18.025 30.4089V40.0539H9.40967V30.529C9.40967 28.0411 11.3665 26.02 13.7755 26.02Z" fill="black"/>
</svg>
