<svg width="78" height="78" viewBox="0 0 78 78" fill="none" xmlns="http://www.w3.org/2000/svg">
<path d="M38.71 77.96C60.089 77.96 77.42 60.5081 77.42 38.98C77.42 17.452 60.089 0 38.71 0C17.3311 0 0 17.452 0 38.98C0 60.5081 17.3311 77.96 38.71 77.96Z" fill="black"/>
<path d="M38.77 72.25C57.0175 72.25 71.81 57.3546 71.81 38.98C71.81 20.6055 57.0175 5.71002 38.77 5.71002C20.5225 5.71002 5.72998 20.6055 5.72998 38.98C5.72998 57.3546 20.5225 72.25 38.77 72.25Z" fill="#F06543"/>
<g clip-path="url(#clip0_380_4509)">
<path d="M39.2389 63H25.125C22.1968 63 19.8124 60.6089 19.8124 57.6724V37.1501H19.0213C16.8512 37.1501 14.9942 35.9325 14.28 34.0428C13.6263 32.3018 14.1262 30.3625 15.5546 29.1009L39.4971 8L63.4396 29.1009C64.868 30.3625 65.3679 32.2963 64.7142 34.0428C64.0054 35.9325 62.143 37.1501 59.9729 37.1501H59.1818V57.6669C59.1818 60.6034 56.7974 62.9945 53.8692 62.9945H39.7553" fill="black"/>
<path d="M61.017 31.8666L51.1664 23.1838L39.4973 12.9033L27.8337 23.1838L17.9831 31.8666C17.2579 32.5056 17.8843 33.4643 19.0215 33.4643H23.521C23.499 33.7012 23.4825 33.9381 23.4825 34.186V57.6669C23.4825 58.5705 24.2187 59.3142 25.1252 59.3142H35.5637V49.6949H43.4255V59.3142H53.8639C54.7649 59.3142 55.5066 58.576 55.5066 57.6669V34.186C55.5066 33.9436 55.4956 33.7012 55.4681 33.4643H59.9676C61.1049 33.4643 61.7312 32.5056 61.006 31.8666H61.017ZM46.546 45.921H41.3762V40.7366H46.546V45.921ZM46.546 40.1857H41.3762V35.0014H46.546V40.1857ZM52.1937 45.921H47.024V40.7366H52.1937V45.921ZM52.1937 40.1857H47.024V35.0014H52.1937V40.1857Z" fill="#F06543"/>
</g>
<defs>
<clipPath id="clip0_380_4509">
<rect width="51" height="55" fill="white" transform="translate(14 8)"/>
</clipPath>
</defs>
</svg>
