<?xml version="1.0" encoding="UTF-8"?>
<svg id="Layer_2" data-name="Layer 2" xmlns="http://www.w3.org/2000/svg" viewBox="0 0 92.83 99.83">
  <defs>
    <style>
      .cls-1 {
        fill: #f06543;
      }
    </style>
  </defs>
  <g id="Dark_BG" data-name="Dark BG">
    <g>
      <path d="M45.94,99.83H20.25c-5.33,0-9.67-4.34-9.67-9.67V52.91h-1.44c-3.95,0-7.33-2.21-8.63-5.64-1.19-3.16-.28-6.68,2.32-8.97L46.41,0l43.58,38.3c2.6,2.29,3.51,5.8,2.32,8.97-1.29,3.43-4.68,5.64-8.63,5.64h-1.44v37.24c0,5.33-4.34,9.67-9.67,9.67h-25.69"/>
      <path class="cls-1" d="M85.58,43.32l-17.93-15.76L46.41,8.9,25.18,27.56,7.25,43.32c-1.32,1.16-.18,2.9,1.89,2.9h8.19c-.04,.43-.07,.86-.07,1.31v42.62c0,1.64,1.34,2.99,2.99,2.99h19v-17.46h14.31v17.46h19c1.64,0,2.99-1.34,2.99-2.99V47.53c0-.44-.02-.88-.07-1.31h8.19c2.07,0,3.21-1.74,1.89-2.9Zm-26.34,25.51h-9.41v-9.41h9.41v9.41Zm0-10.41h-9.41v-9.41h9.41v9.41Zm10.28,10.41h-9.41v-9.41h9.41v9.41Zm0-10.41h-9.41v-9.41h9.41v9.41Z"/>
    </g>
  </g>
</svg>