<svg width="60" height="62" viewBox="0 0 60 62" fill="none" xmlns="http://www.w3.org/2000/svg">
<path d="M30 62C46.5685 62 60 48.1208 60 31C60 13.8792 46.5685 0 30 0C13.4315 0 0 13.8792 0 31C0 48.1208 13.4315 62 30 62Z" fill="black"/>
<path d="M30 57.4589C44.1416 57.4589 55.6057 45.6128 55.6057 31C55.6057 16.3871 44.1416 4.54102 30 4.54102C15.8583 4.54102 4.39417 16.3871 4.39417 31C4.39417 45.6128 15.8583 57.4589 30 57.4589Z" fill="#F06543"/>
<path d="M30 54.5482C42.4981 54.5482 52.6299 44.048 52.6299 31.0954C52.6299 18.1428 42.4981 7.64258 30 7.64258C17.502 7.64258 7.37024 18.1428 7.37024 31.0954C7.37024 44.048 17.502 54.5482 30 54.5482Z" stroke="black" stroke-width="2" stroke-miterlimit="10"/>
<path d="M29.9999 21.8384C32.3669 21.8384 34.2857 19.8552 34.2857 17.4087C34.2857 14.9623 32.3669 12.979 29.9999 12.979C27.633 12.979 25.7142 14.9623 25.7142 17.4087C25.7142 19.8552 27.633 21.8384 29.9999 21.8384Z" fill="black"/>
<path d="M27.2875 49.4268H32.7047C33.2569 49.4268 33.7045 48.9674 33.7045 48.4008V26.4273C33.7045 25.8607 33.2569 25.4014 32.7047 25.4014H27.2875C26.7354 25.4014 26.2878 25.8607 26.2878 26.4273L26.2878 48.4008C26.2878 48.9674 26.7354 49.4268 27.2875 49.4268Z" fill="black"/>
</svg>
