<svg width="50" height="53" viewBox="0 0 50 53" fill="none" xmlns="http://www.w3.org/2000/svg">
<path d="M25 53C38.8071 53 50 41.1355 50 26.5C50 11.8645 38.8071 0 25 0C11.1929 0 0 11.8645 0 26.5C0 41.1355 11.1929 53 25 53Z" fill="black"/>
<path d="M25.3035 49.1181C37.0882 49.1181 46.6416 38.9916 46.6416 26.5C46.6416 14.0083 37.0882 3.88184 25.3035 3.88184C13.5188 3.88184 3.96533 14.0083 3.96533 26.5C3.96533 38.9916 13.5188 49.1181 25.3035 49.1181Z" fill="#F06543"/>
<path d="M19.8399 15.0311C26.4467 11.2648 34.7068 13.8482 38.2912 20.8097C41.8755 27.7712 39.4149 36.4595 32.8016 40.2326C26.1884 44.0057 17.9347 41.4155 14.3503 34.454" stroke="black" stroke-width="6" stroke-miterlimit="10"/>
<path d="M16.6172 9.44287L20.66 14.3377L24.6965 19.2393L18.4771 20.6262L12.2578 22.0198L14.4342 15.7314L16.6172 9.44287Z" fill="black"/>
</svg>
