<svg width="62" height="40" viewBox="0 0 62 40" fill="none" xmlns="http://www.w3.org/2000/svg">
<rect width="62" height="40" rx="9" fill="#F06543"/>
<path d="M30.5 23.3332C30.3269 23.3332 30.1578 23.3821 30.0139 23.4737C29.87 23.5652 29.7578 23.6954 29.6916 23.8477C29.6254 23.9999 29.6081 24.1675 29.6418 24.3291C29.6756 24.4908 29.7589 24.6393 29.8813 24.7558C30.0037 24.8724 30.1596 24.9517 30.3293 24.9839C30.499 25.016 30.675 24.9995 30.8348 24.9365C30.9947 24.8734 31.1314 24.7666 31.2275 24.6295C31.3237 24.4925 31.375 24.3314 31.375 24.1666C31.375 23.9456 31.2828 23.7336 31.1187 23.5773C30.9546 23.421 30.7321 23.3332 30.5 23.3332ZM39.8363 24.5582L32.7925 12.8916C32.5648 12.5028 32.2323 12.179 31.8293 11.9536C31.4263 11.7282 30.9674 11.6094 30.5 11.6094C30.0326 11.6094 29.5737 11.7282 29.1707 11.9536C28.7677 12.179 28.4352 12.5028 28.2075 12.8916L21.2075 24.5582C20.9719 24.9366 20.8454 25.3674 20.8406 25.8073C20.8358 26.2471 20.9529 26.6803 21.1801 27.0633C21.4073 27.4462 21.7366 27.7653 22.1347 27.9883C22.5328 28.2112 22.9857 28.3302 23.4475 28.3332H37.5525C38.018 28.3376 38.4764 28.224 38.8807 28.004C39.2849 27.784 39.6204 27.4656 39.8529 27.0814C40.0853 26.6972 40.2062 26.2611 40.2033 25.8177C40.2004 25.3743 40.0737 24.9396 39.8363 24.5582V24.5582ZM38.3225 26.2249C38.2458 26.3549 38.1339 26.4628 37.9985 26.5376C37.863 26.6123 37.709 26.6511 37.5525 26.6499H23.4475C23.291 26.6511 23.137 26.6123 23.0015 26.5376C22.8661 26.4628 22.7542 26.3549 22.6775 26.2249C22.6007 26.0982 22.5603 25.9545 22.5603 25.8082C22.5603 25.662 22.6007 25.5182 22.6775 25.3916L29.6775 13.7249C29.7509 13.5884 29.8625 13.4738 29.9999 13.3939C30.1373 13.3139 30.2952 13.2715 30.4563 13.2715C30.6173 13.2715 30.7752 13.3139 30.9126 13.3939C31.05 13.4738 31.1616 13.5884 31.235 13.7249L38.2788 25.3916C38.3656 25.5164 38.4154 25.6613 38.4231 25.8108C38.4308 25.9604 38.3961 26.1092 38.3225 26.2416V26.2249ZM30.5 16.6666C30.2679 16.6666 30.0454 16.7544 29.8813 16.9106C29.7172 17.0669 29.625 17.2789 29.625 17.4999V20.8332C29.625 21.0542 29.7172 21.2662 29.8813 21.4225C30.0454 21.5788 30.2679 21.6666 30.5 21.6666C30.7321 21.6666 30.9546 21.5788 31.1187 21.4225C31.2828 21.2662 31.375 21.0542 31.375 20.8332V17.4999C31.375 17.2789 31.2828 17.0669 31.1187 16.9106C30.9546 16.7544 30.7321 16.6666 30.5 16.6666Z" fill="white"/>
</svg>
