<?xml version="1.0" encoding="UTF-8"?>
<svg id="Layer_2" data-name="Layer 2" xmlns="http://www.w3.org/2000/svg" viewBox="0 0 231.01 150.82">
  <defs>
    <style>
      .cls-1 {
        fill: #598392;
      }

      .cls-2 {
        fill: #185680;
      }
    </style>
  </defs>
  <g id="Lower">
    <g>
      <g>
        <rect class="cls-1" x="67.51" y="79.45" width="33.98" height="11.87" transform="translate(-2.08 168.66) rotate(-89.18)"/>
        <path class="cls-2" d="m83.77,80.75s-65.08,6.84-56.84-32.76c-18.73-4.44-16.26-4.41-16.26-4.41,0,0-16.26,56.4,72.92,49.96"/>
        <path class="cls-1" d="m4.58,28.7c.16,7.18,6.38,13.01,14.14,13.12,7.76.11,14.15-5.54,14.51-12.71l4.31.06-.37,25.83-37.16-.53.37-25.83,4.21.06Z"/>
        <g>
          <rect class="cls-1" x="57.07" y="59.3" width="95.78" height="91.52"/>
          <polygon class="cls-2" points="163.08 136.31 152.47 150.82 152.47 59.3 163.32 51.6 163.08 136.31"/>
          <polygon points="153.03 59.3 57.07 59.3 67.35 51.6 163.32 51.6 153.03 59.3"/>
        </g>
        <g>
          <rect class="cls-1" x="69.73" y="4.44" width="79.09" height="52.83"/>
          <polygon class="cls-2" points="157.27 48.9 148.5 57.27 148.5 4.44 157.47 0 157.27 48.9"/>
          <rect x="81.18" y="16.91" width="15.58" height="13.56"/>
          <rect x="77.98" y="10.99" width="15.58" height="3.74"/>
          <rect x="111.18" y="10.99" width="22.68" height="3.74"/>
          <rect x="113.98" y="16.52" width="15.58" height="13.56"/>
          <rect x="90.69" y="39.04" width="28.68" height="14.34"/>
          <polygon points="148.97 4.44 69.73 4.44 78.22 0 157.47 0 148.97 4.44"/>
        </g>
        <rect class="cls-1" x="157.89" y="70.28" width="9.55" height="29.35"/>
        <path class="cls-2" d="m163.32,80.96s52.28,6.71,46.11-27.58c15.12-3.6,13.13-3.6,13.13-3.6,0,0,12.43,48.9-59.24,42.23"/>
      </g>
      <path class="cls-1" d="m227.63,36.99c-.21,6.19-5.28,11.15-11.53,11.15s-11.32-4.96-11.53-11.15h-3.47v22.31h29.9v-22.31h-3.39Z"/>
    </g>
  </g>
</svg>