<svg width="219" height="160" viewBox="0 0 219 160" fill="none" xmlns="http://www.w3.org/2000/svg">
<path d="M62.2 9.60001C62.2 9.60001 117 -19.1 173.2 29.2C174.9 28.6 102 103.1 102 103.1" fill="url(#paint0_linear_1_3)"/>
<path d="M204.6 102.3H202.6C202.6 47 157.2 2 101.3 2C46.6 2 2 47 2 102.3H0C0 75 10.5 49.3 29.5 30C48.6 10.7 74.1 0 101.3 0C128.6 0 154.5 10.6 174.1 30C193.8 49.4 204.6 75.1 204.6 102.3Z" fill="black"/>
<path d="M174.6 102.3H172.6C172.6 63.6 140.6 32 101.3 32C63.1 32 32 63.5 32 102.3H30C30 83 37.3 64.8 50.7 51.2C64.1 37.5 82.1 30 101.3 30C120.6 30 138.9 37.5 152.9 51.2C166.9 64.9 174.6 83.1 174.6 102.3Z" fill="black"/>
<path d="M144.6 102.3H142.6C142.6 80.5 123.7 62 101.3 62C79.3 62 62 79.7 62 102.3H60C60 78.6 78.1 60 101.3 60C124.8 60 144.6 79.4 144.6 102.3Z" fill="black"/>
<path d="M124.6 102.3H122.6C122.6 91.3 112.9 82 101.3 82C90.3 82 82 90.7 82 102.3H80C80 89.8 89.3 80 101.3 80C114 80 124.6 90.2 124.6 102.3Z" fill="black"/>
<path d="M30.3 121.1C30.3 119.8 30.5 118.6 31 117.4C31.5 116.3 32.2 115.3 33 114.4C33.9 113.5 34.9 112.9 36 112.4C37.1 111.9 38.4 111.7 39.7 111.7H54.2V118H39.8C39.4 118 38.9 118.1 38.6 118.2C38.2 118.4 37.9 118.6 37.6 118.9C37.3 119.2 37.1 119.5 36.9 119.9C36.7 120.3 36.7 120.7 36.7 121.1C36.7 121.5 36.8 122 36.9 122.3C37.1 122.7 37.3 123 37.6 123.3C37.9 123.6 38.2 123.8 38.6 124C39 124.2 39.4 124.2 39.8 124.2H46.1C47.4 124.2 48.6 124.4 49.8 124.9C50.9 125.4 52 126.1 52.8 126.9C53.7 127.8 54.3 128.8 54.8 129.9C55.3 131.1 55.5 132.3 55.5 133.6C55.5 134.9 55.3 136.1 54.8 137.3C54.3 138.4 53.6 139.4 52.8 140.3C51.9 141.2 50.9 141.8 49.8 142.3C48.6 142.8 47.4 143 46.1 143H32.1V136.7H46.1C46.5 136.7 46.9 136.6 47.3 136.5C47.7 136.4 48 136.1 48.3 135.8C48.6 135.5 48.8 135.2 49 134.8C49.2 134.4 49.2 134 49.2 133.6C49.2 133.2 49.1 132.8 49 132.4C48.9 132 48.6 131.7 48.3 131.4C48 131.1 47.7 130.9 47.3 130.7C46.9 130.5 46.5 130.5 46.1 130.5H39.8C38.5 130.5 37.3 130.3 36.1 129.8C34.9 129.3 34 128.6 33.1 127.8C32.2 126.9 31.6 125.9 31.1 124.8C30.6 123.6 30.3 122.4 30.3 121.1Z" fill="black"/>
<path d="M91.8 134.2C91.8 135.5 91.6 136.7 91.1 137.9C90.6 139.1 89.9 140.1 89.1 140.9C88.2 141.8 87.2 142.4 86.1 142.9C84.9 143.4 83.7 143.6 82.4 143.6C81.2 143.6 80.1 143.4 79 143C77.9 142.6 77 142 76.1 141.2C75.2 142 74.3 142.6 73.2 143C72.1 143.4 71 143.6 69.8 143.6C68.5 143.6 67.3 143.4 66.1 142.9C64.9 142.4 63.9 141.7 63.1 140.9C62.2 140 61.6 139 61.1 137.9C60.6 136.8 60.4 135.5 60.4 134.2V111.7H66.7V134.2C66.7 134.6 66.8 135.1 66.9 135.4C67.1 135.8 67.3 136.1 67.6 136.4C67.9 136.7 68.2 136.9 68.6 137.1C69 137.3 69.4 137.3 69.8 137.3C70.2 137.3 70.6 137.2 71 137.1C71.4 137 71.7 136.7 72 136.4C72.3 136.1 72.5 135.8 72.7 135.4C72.9 135 72.9 134.6 72.9 134.2V111.7H79.2V134.2C79.2 134.6 79.3 135.1 79.4 135.4C79.6 135.8 79.8 136.1 80.1 136.4C80.4 136.7 80.7 136.9 81.1 137.1C81.5 137.3 81.9 137.3 82.3 137.3C82.7 137.3 83.1 137.2 83.5 137.1C83.9 137 84.2 136.7 84.5 136.4C84.8 136.1 85 135.8 85.2 135.4C85.4 135 85.5 134.6 85.5 134.2V111.7H91.8V134.2Z" fill="black"/>
<path d="M137.2 143.2H130.5L118.3 122.4V143.1H112V111.6H118.7L130.9 132.4V111.6H137.2V143.2Z" fill="black"/>
<path d="M167.4 127.4C167.4 128.9 167.2 130.2 166.8 131.6C166.4 132.9 165.9 134.2 165.2 135.4C164.5 136.6 163.7 137.6 162.7 138.6C161.7 139.6 160.7 140.4 159.5 141.1C158.3 141.8 157.1 142.3 155.7 142.7C154.4 143.1 153 143.3 151.5 143.3H142V111.8H151.5C153 111.8 154.3 112 155.7 112.4C157 112.8 158.3 113.3 159.5 114C160.7 114.7 161.7 115.5 162.7 116.5C163.7 117.5 164.5 118.5 165.2 119.7C165.9 120.9 166.4 122.1 166.8 123.5C167.2 124.6 167.4 126 167.4 127.4ZM161.1 127.4C161.1 126.1 160.9 124.9 160.4 123.7C159.9 122.6 159.2 121.6 158.4 120.7C157.5 119.8 156.5 119.2 155.4 118.7C154.3 118.2 153 118 151.7 118H148.6V136.9H151.7C153 136.9 154.2 136.7 155.4 136.2C156.6 135.7 157.6 135 158.4 134.2C159.3 133.3 159.9 132.3 160.4 131.2C160.8 129.9 161.1 128.7 161.1 127.4Z" fill="black"/>
<path d="M193.6 143.2H171.5V111.7H177.8V136.9H193.6V143.2Z" fill="black"/>
<path d="M218.5 143.2H196.9V111.7H218.5V118H203.2V124.3H213.5V130.6H203.2V136.9H218.5V143.2Z" fill="black"/>
<path d="M106.8 103.2C106.8 103.8 106.7 104.3 106.5 104.8C106.3 105.3 106 105.7 105.6 106.1C105.2 106.5 104.8 106.7 104.3 107C103.8 107.2 103.3 107.3 102.7 107.3C102.1 107.3 101.6 107.2 101.1 107C100.6 106.8 100.2 106.5 99.8 106.1C99.4 105.7 99.2 105.3 98.9 104.8C98.7 104.3 98.6 103.8 98.6 103.2C98.6 102.7 98.7 102.1 98.9 101.7C99.1 101.2 99.4 100.8 99.8 100.4C100.2 100 100.6 99.8 101.1 99.5C101.6 99.3 102.1 99.2 102.7 99.2C103.3 99.2 103.8 99.3 104.3 99.5C104.8 99.7 105.2 100 105.6 100.4C106 100.8 106.3 101.2 106.5 101.7C106.7 102.1 106.8 102.6 106.8 103.2ZM105.7 143.1H99.7V111.1H105.7V143.1Z" fill="black"/>
<path d="M172.453 29.5146L102.723 101.195L104.874 103.287L174.604 31.6065L172.453 29.5146Z" fill="black"/>
<path d="M145.2 157.8C145.7 158.1 146.4 158.3 147.1 158.3C148.2 158.3 148.8 157.7 148.8 156.9C148.8 156.1 148.4 155.7 147.3 155.3C146 154.8 145.2 154.1 145.2 153C145.2 151.7 146.2 150.8 147.8 150.8C148.6 150.8 149.2 151 149.6 151.2L149.3 152.1C149 152 148.5 151.7 147.8 151.7C146.7 151.7 146.3 152.4 146.3 152.9C146.3 153.7 146.8 154 147.9 154.5C149.3 155 150 155.7 150 156.9C150 158.1 149.1 159.2 147.2 159.2C146.4 159.2 145.6 159 145.1 158.7L145.2 157.8Z" fill="black"/>
<path d="M155.5 158.8C155.2 158.9 154.6 159.1 153.8 159.1C152 159.1 150.9 157.9 150.9 156.1C150.9 154.3 152.1 153 154 153C154.6 153 155.2 153.2 155.5 153.3L155.3 154.1C155 154 154.7 153.8 154.1 153.8C152.8 153.8 152 154.8 152 156C152 157.3 152.9 158.2 154 158.2C154.6 158.2 155 158 155.3 157.9L155.5 158.8Z" fill="black"/>
<path d="M159.9 159L159.8 158.3C159.5 158.8 158.9 159.2 158 159.2C156.8 159.2 156.2 158.4 156.2 157.5C156.2 156.1 157.4 155.3 159.7 155.3V155.2C159.7 154.7 159.6 153.9 158.4 153.9C157.9 153.9 157.3 154.1 156.9 154.3L156.7 153.6C157.2 153.3 157.9 153.1 158.6 153.1C160.4 153.1 160.8 154.3 160.8 155.5V157.7C160.8 158.2 160.8 158.7 160.9 159.1H159.9V159ZM159.8 156.1C158.6 156.1 157.3 156.3 157.3 157.4C157.3 158.1 157.8 158.4 158.3 158.4C159.1 158.4 159.5 157.9 159.7 157.4C159.7 157.3 159.8 157.2 159.8 157.1V156.1Z" fill="black"/>
<path d="M162.5 154.8C162.5 154.2 162.5 153.7 162.5 153.2H163.4V154.1C163.7 153.5 164.3 153 165.2 153C166 153 166.6 153.5 166.8 154.2C167 153.9 167.2 153.6 167.4 153.4C167.7 153.1 168.1 153 168.7 153C169.5 153 170.6 153.5 170.6 155.5V158.9H169.6V155.6C169.6 154.5 169.2 153.8 168.3 153.8C167.7 153.8 167.2 154.2 167.1 154.8C167.1 154.9 167 155.1 167 155.3V158.9H166V155.4C166 154.5 165.6 153.8 164.8 153.8C164.1 153.8 163.7 154.3 163.5 154.9C163.4 155.1 163.4 155.2 163.4 155.4V158.9H162.4V154.8H162.5Z" fill="black"/>
<path d="M175.1 151C175.7 150.9 176.5 150.8 177.3 150.8C178.8 150.8 179.9 151.1 180.6 151.8C181.3 152.5 181.7 153.4 181.7 154.7C181.7 156 181.3 157.1 180.5 157.8C179.7 158.6 178.5 159 176.9 159C176.2 159 175.5 159 175 158.9V151H175.1ZM176.1 158.2C176.4 158.2 176.7 158.3 177.2 158.3C179.4 158.3 180.6 157.1 180.6 154.9C180.6 153 179.5 151.8 177.3 151.8C176.8 151.8 176.4 151.8 176.1 151.9V158.2Z" fill="black"/>
<path d="M183.7 156.3C183.7 157.7 184.6 158.3 185.7 158.3C186.5 158.3 186.9 158.2 187.3 158L187.5 158.8C187.1 159 186.5 159.2 185.6 159.2C183.8 159.2 182.7 158 182.7 156.3C182.7 154.6 183.7 153.2 185.4 153.2C187.3 153.2 187.8 154.9 187.8 155.9C187.8 156.1 187.8 156.3 187.8 156.4H183.7V156.3ZM186.8 155.6C186.8 154.9 186.5 153.9 185.3 153.9C184.2 153.9 183.8 154.9 183.7 155.6H186.8Z" fill="black"/>
<path d="M190.4 151.6V153.3H191.9V154.1H190.4V157.2C190.4 157.9 190.6 158.3 191.2 158.3C191.5 158.3 191.7 158.3 191.8 158.2V159C191.6 159.1 191.3 159.1 190.9 159.1C190.4 159.1 190 158.9 189.8 158.7C189.5 158.4 189.4 157.9 189.4 157.2V154H188.5V153.2H189.4V151.8L190.4 151.6Z" fill="black"/>
<path d="M193.6 156.3C193.6 157.7 194.5 158.3 195.6 158.3C196.4 158.3 196.8 158.2 197.2 158L197.4 158.8C197 159 196.4 159.2 195.5 159.2C193.7 159.2 192.6 158 192.6 156.3C192.6 154.6 193.6 153.2 195.3 153.2C197.2 153.2 197.7 154.9 197.7 155.9C197.7 156.1 197.7 156.3 197.7 156.4H193.6V156.3ZM196.7 155.6C196.7 154.9 196.4 153.9 195.2 153.9C194.1 153.9 193.7 154.9 193.6 155.6H196.7Z" fill="black"/>
<path d="M203.1 158.8C202.8 158.9 202.2 159.1 201.4 159.1C199.6 159.1 198.5 157.9 198.5 156.1C198.5 154.3 199.7 153 201.6 153C202.2 153 202.8 153.2 203.1 153.3L202.9 154.1C202.6 154 202.3 153.8 201.7 153.8C200.4 153.8 199.6 154.8 199.6 156C199.6 157.3 200.5 158.2 201.6 158.2C202.2 158.2 202.6 158 202.9 157.9L203.1 158.8Z" fill="black"/>
<path d="M205.8 151.6V153.3H207.3V154.1H205.8V157.2C205.8 157.9 206 158.3 206.6 158.3C206.9 158.3 207.1 158.3 207.2 158.2V159C207 159.1 206.7 159.1 206.3 159.1C205.8 159.1 205.4 158.9 205.2 158.7C204.9 158.4 204.8 157.9 204.8 157.2V154H203.9V153.2H204.8V151.8L205.8 151.6Z" fill="black"/>
<path d="M213.7 156.1C213.7 158.2 212.2 159.2 210.8 159.2C209.2 159.2 208 158 208 156.2C208 154.3 209.3 153.1 210.9 153.1C212.6 153.1 213.7 154.3 213.7 156.1ZM209.1 156.1C209.1 157.4 209.8 158.3 210.9 158.3C211.9 158.3 212.7 157.4 212.7 156C212.7 155 212.2 153.8 211 153.8C209.6 153.9 209.1 155 209.1 156.1Z" fill="black"/>
<path d="M215 155C215 154.3 215 153.7 215 153.2H215.9V154.3C216.2 153.5 216.8 153 217.5 153C217.6 153 217.7 153 217.8 153V154C217.7 154 217.6 154 217.4 154C216.7 154 216.1 154.6 216 155.4C216 155.5 216 155.7 216 155.9V159H215V155Z" fill="black"/>
<defs>
<linearGradient id="paint0_linear_1_3" x1="76.7213" y1="59.4609" x2="162.177" y2="10.1232" gradientUnits="userSpaceOnUse">
<stop stop-color="white" stop-opacity="0"/>
<stop offset="0.0135074" stop-color="#FBFDFB" stop-opacity="0.0135074"/>
<stop offset="0.2101" stop-color="#C0E8C6" stop-opacity="0.2101"/>
<stop offset="0.4" stop-color="#90D69A" stop-opacity="0.4"/>
<stop offset="0.5785" stop-color="#6AC777" stop-opacity="0.5785"/>
<stop offset="0.7431" stop-color="#4FBD5E" stop-opacity="0.7431"/>
<stop offset="0.8887" stop-color="#3FB74F" stop-opacity="0.8887"/>
<stop offset="1" stop-color="#39B54A"/>
</linearGradient>
</defs>
</svg>
