<svg width="288" height="104" viewBox="0 0 288 104" fill="none" xmlns="http://www.w3.org/2000/svg">
<path d="M2.84009 2.46995C2.84009 2.46995 26.8101 -5.41006 66.3901 26.5299C67.8801 25.9999 2.29004 90.5499 2.29004 90.5499" fill="url(#paint0_linear_223_4550)"/>
<path d="M2.84009 0.699951C27.0301 0.699951 49.9 10.12 67.25 27.24C84.65 44.41 94.24 67.13 94.24 91.22H92.47C92.47 42.29 52.2601 2.47995 2.84009 2.47995" fill="white"/>
<path d="M2.84009 27.26C19.9501 27.26 36.16 33.92 48.48 46.01C60.86 58.16 67.6802 74.21 67.6802 91.22H65.9102C65.9102 56.93 37.6201 29.03 2.84009 29.03" fill="white"/>
<path d="M2.84009 53.8099C23.5901 53.8099 41.1301 70.9399 41.1301 91.2099H39.3601C39.3601 71.8999 22.6401 55.5799 2.84009 55.5799" fill="white"/>
<path d="M2.84009 71.51C14.0001 71.51 23.4202 80.53 23.4202 91.21H21.6501C21.6501 81.49 13.0301 73.28 2.84009 73.28" fill="white"/>
<path d="M5.01001 89.53L3.11011 87.67L65.76 26.85L67.6602 28.7L5.01001 89.53Z" fill="white"/>
<path d="M8.57007 88.82C8.57007 89.38 8.46 89.9 8.25 90.38C8.04 90.86 7.75013 91.29 7.38013 91.64C7.01013 92 6.59009 92.28 6.09009 92.5C5.60009 92.71 5.08002 92.82 4.52002 92.82C3.96002 92.82 3.43995 92.71 2.94995 92.5C2.45995 92.29 2.03018 92 1.68018 91.64C1.32018 91.28 1.04007 90.86 0.820068 90.38C0.610068 89.9 0.5 89.38 0.5 88.82C0.5 88.28 0.610068 87.76 0.820068 87.27C1.03007 86.78 1.32018 86.35 1.68018 86C2.04018 85.64 2.45995 85.36 2.94995 85.14C3.43995 84.93 3.96002 84.82 4.52002 84.82C5.08002 84.82 5.60009 84.93 6.09009 85.14C6.58009 85.35 7.01013 85.64 7.38013 86C7.75013 86.36 8.04 86.78 8.25 87.27C8.46 87.76 8.57007 88.27 8.57007 88.82ZM183.18 92.25H177.14V60.76H183.18V92.25Z" fill="white"/>
<path d="M111.34 69.2722C111.34 67.9685 111.589 66.7454 112.087 65.6028C112.585 64.4602 113.259 63.4641 114.109 62.6145C114.973 61.7502 115.977 61.0691 117.119 60.571C118.262 60.073 119.485 59.824 120.789 59.824H135.247V66.1301H120.789C120.349 66.1301 119.939 66.2107 119.558 66.3718C119.177 66.533 118.84 66.76 118.547 67.053C118.269 67.3313 118.049 67.6609 117.888 68.0417C117.727 68.4226 117.646 68.8328 117.646 69.2722C117.646 69.7117 117.727 70.1292 117.888 70.5247C118.049 70.9055 118.269 71.2424 118.547 71.5354C118.84 71.8137 119.177 72.0334 119.558 72.1946C119.939 72.3557 120.349 72.4363 120.789 72.4363H127.095C128.398 72.4363 129.622 72.6853 130.764 73.1833C131.921 73.6667 132.925 74.3406 133.774 75.2048C134.639 76.0544 135.312 77.0579 135.796 78.2151C136.294 79.3577 136.543 80.5808 136.543 81.8845C136.543 83.1882 136.294 84.4114 135.796 85.554C135.312 86.6965 134.639 87.7 133.774 88.5642C132.925 89.4138 131.921 90.0876 130.764 90.5857C129.622 91.0837 128.398 91.3328 127.095 91.3328H113.098V85.0266H127.095C127.534 85.0266 127.944 84.946 128.325 84.7849C128.706 84.6238 129.036 84.4041 129.314 84.1257C129.607 83.8328 129.834 83.4958 129.995 83.115C130.156 82.7341 130.237 82.324 130.237 81.8845C130.237 81.4451 130.156 81.0349 129.995 80.6541C129.834 80.2732 129.607 79.9436 129.314 79.6653C129.036 79.3723 128.706 79.1453 128.325 78.9841C127.944 78.823 127.534 78.7424 127.095 78.7424H120.789C119.485 78.7424 118.262 78.4934 117.119 77.9954C115.977 77.4973 114.973 76.8235 114.109 75.9739C113.259 75.1096 112.585 74.1062 112.087 72.9636C111.589 71.8064 111.34 70.5759 111.34 69.2722ZM171.963 82.324C171.963 83.6277 171.714 84.8582 171.216 86.0154C170.732 87.158 170.059 88.1614 169.194 89.0256C168.345 89.8752 167.341 90.5491 166.184 91.0471C165.042 91.5305 163.818 91.7722 162.515 91.7722C161.343 91.7722 160.215 91.5671 159.131 91.157C158.062 90.7468 157.095 90.1462 156.23 89.3552C155.366 90.1462 154.392 90.7468 153.308 91.157C152.224 91.5671 151.096 91.7722 149.924 91.7722C148.621 91.7722 147.39 91.5305 146.233 91.0471C145.09 90.5491 144.087 89.8752 143.223 89.0256C142.373 88.1614 141.699 87.158 141.201 86.0154C140.718 84.8582 140.476 83.6277 140.476 82.324V59.824H146.782V82.324C146.782 82.7634 146.863 83.1809 147.024 83.5764C147.185 83.9573 147.405 84.2942 147.683 84.5872C147.976 84.8655 148.313 85.0852 148.694 85.2463C149.075 85.4075 149.485 85.488 149.924 85.488C150.364 85.488 150.774 85.4075 151.155 85.2463C151.536 85.0852 151.865 84.8655 152.144 84.5872C152.437 84.2942 152.664 83.9573 152.825 83.5764C152.986 83.1809 153.066 82.7634 153.066 82.324V59.824H159.373V82.324C159.373 82.7634 159.453 83.1809 159.614 83.5764C159.775 83.9573 159.995 84.2942 160.273 84.5872C160.566 84.8655 160.903 85.0852 161.284 85.2463C161.665 85.4075 162.075 85.488 162.515 85.488C162.954 85.488 163.364 85.4075 163.745 85.2463C164.126 85.0852 164.456 84.8655 164.734 84.5872C165.027 84.2942 165.254 83.9573 165.415 83.5764C165.591 83.1809 165.679 82.7634 165.679 82.324V59.824H171.963V82.324ZM202.812 91.3328H196.067L183.916 70.5906V91.3328H177.61V59.824H184.355L196.506 80.5881V59.824H202.812V91.3328ZM233.926 75.5784C233.926 77.0286 233.735 78.4275 233.354 79.7751C232.988 81.1082 232.461 82.3606 231.772 83.5325C231.084 84.6897 230.264 85.7517 229.312 86.7185C228.359 87.6707 227.297 88.491 226.125 89.1794C224.954 89.8679 223.694 90.4026 222.346 90.7834C221.013 91.1497 219.622 91.3328 218.171 91.3328H208.679V59.824H218.171C219.622 59.824 221.013 60.0144 222.346 60.3953C223.694 60.7615 224.954 61.2888 226.125 61.9773C227.297 62.6658 228.359 63.4934 229.312 64.4602C230.264 65.4124 231.084 66.4744 231.772 67.6462C232.461 68.8035 232.988 70.0559 233.354 71.4036C233.735 72.7366 233.926 74.1282 233.926 75.5784ZM227.62 75.5784C227.62 74.2747 227.371 73.0515 226.873 71.9089C226.389 70.7664 225.715 69.7703 224.851 68.9207C224.001 68.0564 222.998 67.3752 221.841 66.8772C220.698 66.3792 219.475 66.1301 218.171 66.1301H215.029V85.0266H218.171C219.475 85.0266 220.698 84.7849 221.841 84.3015C222.998 83.8035 224.001 83.1296 224.851 82.28C225.715 81.4158 226.389 80.4124 226.873 79.2698C227.371 78.1125 227.62 76.8821 227.62 75.5784ZM260.183 91.3328H238.123V59.824H244.429V85.0266H260.183V91.3328ZM285.078 91.3328H263.479V59.824H285.078V66.1301H269.785V72.4363H280.134V78.7424H269.785V85.0266H285.078V91.3328Z" fill="white"/>
<defs>
<linearGradient id="paint0_linear_223_4550" x1="-16.7073" y1="57.6405" x2="59.105" y2="13.8702" gradientUnits="userSpaceOnUse">
<stop stop-color="#153B50"/>
<stop offset="1" stop-color="#F06543"/>
</linearGradient>
</defs>
</svg>
