<svg width="287" height="103" viewBox="0 0 287 103" fill="none" xmlns="http://www.w3.org/2000/svg">
<path d="M2.35004 1.77C2.35004 1.77 26.3201 -6.11001 65.9001 25.83C67.3901 25.3 1.80005 89.85 1.80005 89.85" fill="url(#paint0_linear_223_3492)"/>
<path d="M2.3501 0C26.5401 0 49.4101 9.41998 66.7601 26.54C84.1601 43.71 93.7501 66.43 93.7501 90.52H91.9801C91.9801 41.59 51.7701 1.78 2.3501 1.78" fill="black"/>
<path d="M2.3501 26.56C19.4601 26.56 35.6701 33.22 47.9901 45.31C60.3701 57.46 67.1901 73.51 67.1901 90.52H65.4201C65.4201 56.23 37.1301 28.33 2.3501 28.33" fill="black"/>
<path d="M2.3501 53.11C23.1001 53.11 40.6401 70.24 40.6401 90.51H38.8701C38.8701 71.2 22.1501 54.88 2.3501 54.88" fill="black"/>
<path d="M2.3501 70.81C13.5101 70.81 22.9301 79.83 22.9301 90.51H21.1601C21.1601 80.79 12.5401 72.58 2.3501 72.58" fill="black"/>
<path d="M4.5199 88.83L2.60986 86.97L65.2699 26.15L67.1699 28L4.5199 88.83Z" fill="black"/>
<path d="M8.07001 88.11C8.07001 88.67 7.96 89.19 7.75 89.67C7.54 90.15 7.25 90.58 6.88 90.93C6.51 91.29 6.09003 91.57 5.59003 91.79C5.10003 92 4.58002 92.11 4.02002 92.11C3.46002 92.11 2.94001 92 2.45001 91.79C1.96001 91.58 1.52999 91.29 1.17999 90.93C0.819993 90.57 0.540007 90.15 0.320007 89.67C0.110007 89.19 0 88.67 0 88.11C0 87.57 0.110007 87.05 0.320007 86.56C0.530007 86.07 0.819993 85.64 1.17999 85.29C1.53999 84.93 1.96001 84.65 2.45001 84.43C2.94001 84.22 3.46002 84.11 4.02002 84.11C4.58002 84.11 5.10003 84.22 5.59003 84.43C6.08003 84.64 6.51 84.93 6.88 85.29C7.25 85.65 7.54 86.07 7.75 86.56C7.97 87.06 8.07001 87.57 8.07001 88.11ZM182.68 91.55H176.64V60.06H182.68V91.55Z" fill="black"/>
<path d="M110.844 68.5721C110.844 67.2683 111.093 66.0452 111.591 64.9026C112.089 63.76 112.763 62.7639 113.613 61.9143C114.477 61.0501 115.48 60.3689 116.623 59.8709C117.766 59.3728 118.989 59.1238 120.292 59.1238H134.75V65.43H120.292C119.853 65.43 119.443 65.5105 119.062 65.6717C118.681 65.8328 118.344 66.0598 118.051 66.3528C117.773 66.6311 117.553 66.9607 117.392 67.3416C117.231 67.7224 117.15 68.1326 117.15 68.5721C117.15 69.0115 117.231 69.429 117.392 69.8245C117.553 70.2054 117.773 70.5423 118.051 70.8352C118.344 71.1136 118.681 71.3333 119.062 71.4944C119.443 71.6555 119.853 71.7361 120.292 71.7361H126.599C127.902 71.7361 129.125 71.9851 130.268 72.4832C131.425 72.9666 132.429 73.6404 133.278 74.5047C134.143 75.3543 134.816 76.3577 135.3 77.5149C135.798 78.6575 136.047 79.8806 136.047 81.1844C136.047 82.4881 135.798 83.7112 135.3 84.8538C134.816 85.9964 134.143 86.9998 133.278 87.864C132.429 88.7137 131.425 89.3875 130.268 89.8855C129.125 90.3836 127.902 90.6326 126.599 90.6326H112.602V84.3264H126.599C127.038 84.3264 127.448 84.2459 127.829 84.0847C128.21 83.9236 128.54 83.7039 128.818 83.4256C129.111 83.1326 129.338 82.7957 129.499 82.4148C129.66 82.034 129.741 81.6238 129.741 81.1844C129.741 80.7449 129.66 80.3347 129.499 79.9539C129.338 79.573 129.111 79.2434 128.818 78.9651C128.54 78.6721 128.21 78.4451 127.829 78.284C127.448 78.1228 127.038 78.0423 126.599 78.0423H120.292C118.989 78.0423 117.766 77.7932 116.623 77.2952C115.48 76.7971 114.477 76.1233 113.613 75.2737C112.763 74.4095 112.089 73.406 111.591 72.2635C111.093 71.1062 110.844 69.8758 110.844 68.5721ZM171.467 81.6238C171.467 82.9275 171.218 84.158 170.72 85.3152C170.236 86.4578 169.562 87.4612 168.698 88.3255C167.849 89.1751 166.845 89.8489 165.688 90.347C164.545 90.8304 163.322 91.0721 162.019 91.0721C160.847 91.0721 159.719 90.867 158.635 90.4568C157.565 90.0467 156.599 89.4461 155.734 88.6551C154.87 89.4461 153.896 90.0467 152.812 90.4568C151.728 90.867 150.6 91.0721 149.428 91.0721C148.125 91.0721 146.894 90.8304 145.737 90.347C144.594 89.8489 143.591 89.1751 142.727 88.3255C141.877 87.4612 141.203 86.4578 140.705 85.3152C140.222 84.158 139.98 82.9275 139.98 81.6238V59.1238H146.286V81.6238C146.286 82.0633 146.367 82.4807 146.528 82.8763C146.689 83.2571 146.909 83.594 147.187 83.887C147.48 84.1653 147.817 84.385 148.198 84.5462C148.579 84.7073 148.989 84.7879 149.428 84.7879C149.868 84.7879 150.278 84.7073 150.659 84.5462C151.04 84.385 151.369 84.1653 151.647 83.887C151.94 83.594 152.167 83.2571 152.329 82.8763C152.49 82.4807 152.57 82.0633 152.57 81.6238V59.1238H158.876V81.6238C158.876 82.0633 158.957 82.4807 159.118 82.8763C159.279 83.2571 159.499 83.594 159.777 83.887C160.07 84.1653 160.407 84.385 160.788 84.5462C161.169 84.7073 161.579 84.7879 162.019 84.7879C162.458 84.7879 162.868 84.7073 163.249 84.5462C163.63 84.385 163.959 84.1653 164.238 83.887C164.531 83.594 164.758 83.2571 164.919 82.8763C165.095 82.4807 165.183 82.0633 165.183 81.6238V59.1238H171.467V81.6238ZM202.316 90.6326H195.571L183.42 69.8904V90.6326H177.114V59.1238H183.859L196.01 79.888V59.1238H202.316V90.6326ZM233.43 74.8782C233.43 76.3284 233.239 77.7273 232.858 79.075C232.492 80.408 231.965 81.6604 231.276 82.8323C230.588 83.9895 229.768 85.0515 228.815 86.0183C227.863 86.9705 226.801 87.7908 225.629 88.4793C224.458 89.1678 223.198 89.7024 221.85 90.0833C220.517 90.4495 219.125 90.6326 217.675 90.6326H208.183V59.1238H217.675C219.125 59.1238 220.517 59.3142 221.85 59.6951C223.198 60.0613 224.458 60.5887 225.629 61.2771C226.801 61.9656 227.863 62.7932 228.815 63.76C229.768 64.7122 230.588 65.7742 231.276 66.9461C231.965 68.1033 232.492 69.3557 232.858 70.7034C233.239 72.0364 233.43 73.428 233.43 74.8782ZM227.124 74.8782C227.124 73.5745 226.875 72.3513 226.376 71.2088C225.893 70.0662 225.219 69.0701 224.355 68.2205C223.505 67.3562 222.502 66.6751 221.345 66.177C220.202 65.679 218.979 65.43 217.675 65.43H214.533V84.3264H217.675C218.979 84.3264 220.202 84.0847 221.345 83.6013C222.502 83.1033 223.505 82.4295 224.355 81.5799C225.219 80.7156 225.893 79.7122 226.376 78.5696C226.875 77.4124 227.124 76.1819 227.124 74.8782ZM259.687 90.6326H237.626V59.1238H243.933V84.3264H259.687V90.6326ZM284.582 90.6326H262.983V59.1238H284.582V65.43H269.289V71.7361H279.638V78.0423H269.289V84.3264H284.582V90.6326Z" fill="black"/>
<defs>
<linearGradient id="paint0_linear_223_3492" x1="-17.2007" y1="56.9405" x2="58.6116" y2="13.1702" gradientUnits="userSpaceOnUse">
<stop stop-color="white" stop-opacity="0"/>
<stop offset="0.1867" stop-color="#FBD3CA" stop-opacity="0.1867"/>
<stop offset="0.3804" stop-color="#F7AC9A" stop-opacity="0.3804"/>
<stop offset="0.5648" stop-color="#F48D74" stop-opacity="0.5648"/>
<stop offset="0.7348" stop-color="#F27759" stop-opacity="0.7348"/>
<stop offset="0.8851" stop-color="#F06A49" stop-opacity="0.8851"/>
<stop offset="1" stop-color="#F06543"/>
</linearGradient>
</defs>
</svg>
