<svg width="141" height="253" viewBox="0 0 141 253" fill="none" xmlns="http://www.w3.org/2000/svg">
<g clip-path="url(#clip0_143_303)">
<path d="M8.23007 134.74L18.4201 132.59C18.4201 132.59 23.2601 142.58 21.5401 144.9C20.1601 146.76 19.2601 141.18 19.2601 141.18C19.2601 141.18 17.9001 140.09 17.4601 139.44C16.7901 138.46 15.8401 139.09 16.0201 139.67C16.2001 140.25 17.0401 147.33 19.0801 148.44C21.1201 149.55 20.4001 150.41 20.4001 150.41C20.4001 150.41 18.0601 151.51 16.6801 151.16C15.3001 150.81 11.2301 147.91 10.9901 147.21C10.7501 146.51 7.57007 143.38 7.57007 140.71C7.57007 138.04 8.23007 134.73 8.23007 134.73V134.74Z" fill="#153B50"/>
<path d="M129.33 64.27L122.62 56.5401C122.62 56.5401 129.48 47.7401 132.4 48.1301C134.74 48.4401 130.07 51.8101 130.07 51.8101C130.07 51.8101 129.71 53.48 129.32 54.16C128.74 55.19 129.76 55.71 130.2 55.28C130.64 54.85 136.72 50.83 136.78 48.57C136.84 46.31 137.97 46.5201 137.97 46.5201C137.97 46.5201 140.07 48.01 140.39 49.35C140.71 50.69 139.96 55.54 139.44 56.07C138.92 56.6 137.53 60.78 135.1 62.03C132.67 63.28 129.33 64.25 129.33 64.25V64.27Z" fill="#153B50"/>
<path d="M40.2 35.58L39.78 39.24L48.71 46.5L56.2 39.18L56.02 34.48L40.2 35.58Z" fill="#153B50"/>
<path d="M8.14014 130.86L8.23014 134.74L19.6501 132.49L18.9301 129.93L8.14014 130.86Z" fill="#153B50"/>
<path d="M120.55 57.2399L122.95 54.6899L130.62 64.2099L129 66.1199L120.55 58.1699V57.2399Z" fill="#153B50"/>
<path d="M36.6601 41.9099L14.1301 50.2699L3.3501 93.6999L7.1901 132.25C7.1901 132.25 15.5801 132.95 18.9301 129.93C18.4501 125.75 16.5301 96.2599 16.5301 96.2599L22.5201 77.2199L23.7201 100.91L20.3601 136.21L21.6201 136.09L19.2201 239.84L11.1301 246.81C11.1301 246.81 7.8901 250.64 13.1101 252.56C18.3201 254.48 29.6501 249.08 29.2901 245.59L34.8601 244.2L34.6801 241.06L36.8401 238.8L47.8101 148.75L59.3201 238.45L61.6601 240.89L62.0201 243.85L65.9701 245.94C69.9201 252.91 101.02 258.66 77.3001 238.97L74.9601 135.68L76.9401 135.51C76.9401 135.51 69.0301 84.6499 74.7801 70.1899C83.2301 79.0699 95.8101 89.6999 95.8101 89.6999C95.8101 89.6999 99.2301 94.2299 104.8 89.3499C110.37 84.4699 129.97 65.6599 129.97 65.6599L121.52 56.7799L103.54 74.3699C103.54 74.3699 101.56 77.3299 99.0501 73.3199C96.5301 69.3099 81.9701 49.2799 81.9701 49.2799L59.5001 41.4399L48.3501 82.0199L36.6701 41.8999L36.6601 41.9099Z" fill="#153B50"/>
<path d="M39.9001 38.1399L47.9901 44.9299L55.9001 38.4899L60.5701 42.1499L48.5301 88.1299L35.5801 43.1899L39.9001 38.1399Z" fill="#153B50"/>
<path d="M46.3702 50.3299L44.5702 76.1099L49.0702 85.5199L52.1202 74.3699L49.9702 49.8099L53.0202 47.1999L49.2502 43.8899H47.0902L42.9602 47.0199L46.3702 50.3299Z" fill="#153B50"/>
<path d="M60.57 42.1499L60.93 63.2199H58.06L60.21 64.7899L48.53 88.1299L36.66 65.8299L38.82 63.0499L35.23 62.6999L35.58 43.1899L36.66 41.9099L48.11 83.0199L59.85 41.6799L60.57 42.1499Z" fill="#153B50"/>
<path d="M34.0901 18.57L34.2101 9.91996L35.7701 4.57996L37.1501 4.16996L37.2101 3.46996L39.0101 2.07996C39.0101 2.07996 53.4501 -3.96004 57.2901 4.51996C57.2901 4.51996 66.2201 7.24996 61.7801 17.58C59.7401 20.54 60.3401 21.3 60.3401 21.3L59.8001 21.88L58.0601 12.82L43.9801 10.44L38.2901 14.56L36.9101 21.7L35.3501 21.58L34.0901 18.56V18.57Z" fill="#153B50"/>
<path d="M35.9401 26.7599C35.9401 26.7599 37.5601 37.9099 47.1501 39.8199C56.7401 41.7299 59.8501 26.4699 59.8501 26.4699C59.8501 26.4699 61.7101 26.9299 62.7901 23.3299C63.8701 19.7299 62.9701 17.8099 62.9701 17.8099C62.9701 17.8099 60.6301 17.5199 60.3301 21.2899C60.0901 21.9299 59.5501 21.6399 59.5501 21.6399L59.7901 13.5699C59.7901 13.5699 58.1101 6.53989 53.5601 8.97989C49.0101 11.4199 44.8701 9.38989 44.8701 9.38989C44.8701 9.38989 40.2001 7.35989 38.3401 10.7799C36.4801 14.1999 36.9001 21.6999 36.9001 21.6999L35.8801 21.4699C35.8801 21.4699 35.5801 16.0699 32.7601 17.8699C29.9401 19.6699 34.9201 28.3799 35.9401 26.7499V26.7599Z" fill="#153B50"/>
<path d="M4.67004 135.78L14.41 133.66C14.41 133.66 19.03 143.52 17.39 145.8C16.07 147.63 15.21 142.13 15.21 142.13C15.21 142.13 13.91 141.05 13.49 140.41C12.85 139.44 11.94 140.07 12.12 140.64C12.3 141.21 13.09 148.2 15.04 149.29C16.99 150.38 16.3 151.24 16.3 151.24C16.3 151.24 14.07 152.33 12.75 151.98C11.43 151.63 7.54004 148.77 7.31004 148.08C7.08004 147.39 4.04004 144.3 4.04004 141.66C4.04004 139.02 4.67004 135.76 4.67004 135.76V135.78Z" fill="#EBC3A9"/>
<path d="M120.43 66.2599L114.01 58.6299C114.01 58.6299 120.57 49.9399 123.36 50.3299C125.6 50.6399 121.13 53.9699 121.13 53.9699C121.13 53.9699 120.78 55.6199 120.41 56.2899C119.85 57.2999 120.83 57.8199 121.25 57.3999C121.67 56.9799 127.48 53.0099 127.54 50.7799C127.6 48.5499 128.68 48.7599 128.68 48.7599C128.68 48.7599 130.68 50.2299 131 51.5499C131.32 52.8699 130.59 57.6599 130.09 58.1799C129.59 58.6999 128.27 62.8299 125.94 64.0599C123.61 65.2899 120.43 66.2499 120.43 66.2499V66.2599Z" fill="#EBC3A9"/>
<path d="M35.2301 37.9601L34.8301 41.5701L43.3601 48.7301L50.5201 41.5101L50.3501 36.8701L35.2301 37.9601Z" fill="#DBB6A5"/>
<path d="M4.58008 131.96L4.67008 135.78L15.5801 133.56L14.8901 131.04L4.58008 131.96Z" fill="#F2F2F2"/>
<path d="M112.04 59.32L114.34 56.8L121.67 66.2L120.12 68.09L112.04 60.2401V59.32Z" fill="#F2F2F2"/>
<path d="M31.85 44.2L10.31 52.45L0 95.3L3.67 133.34C3.67 133.34 11.69 134.03 14.9 131.05C14.44 126.93 12.61 97.83 12.61 97.83L18.34 79.04L19.49 102.41L16.28 137.24L17.48 137.13L15.19 239.49L7.46 246.36C7.46 246.36 4.37 250.14 9.35 252.03C14.33 253.92 25.16 248.59 24.82 245.16L30.15 243.79L29.98 240.7L32.04 238.47L42.52 149.62L53.52 238.12L55.75 240.53L56.09 243.45L59.87 245.51C63.65 252.38 93.38 258.05 70.7 238.64L68.47 136.73L70.36 136.56C70.36 136.56 62.8 86.38 68.3 72.12C76.38 80.88 88.41 91.37 88.41 91.37C88.41 91.37 91.68 95.84 97 91.03C102.32 86.22 121.06 67.66 121.06 67.66L112.98 58.9L95.8 76.26C95.8 76.26 93.91 79.18 91.5 75.23C89.09 71.28 75.17 51.52 75.17 51.52L53.69 43.79L43.04 83.83L31.87 44.25L31.85 44.2Z" fill="#598392"/>
<path d="M34.9401 40.48L42.6801 47.18L50.2401 40.82L54.7001 44.43L43.1901 89.8L30.8201 45.46L34.9401 40.48Z" fill="#F2F2F2"/>
<path d="M41.1301 52.5099L39.4101 77.9399L43.7101 87.2199L46.6301 76.2199L44.5701 51.9899L47.4901 49.4099L43.8801 46.1499H41.8201L37.8601 49.2399L41.1301 52.5099Z" fill="#F06543"/>
<path d="M54.7 44.43L55.05 65.22H52.3L54.36 66.77L43.19 89.8L31.85 67.8L33.91 65.05L30.47 64.71L30.82 45.46L31.85 44.2L42.79 84.76L54.02 43.97L54.7 44.43Z" fill="#5A6676"/>
<path d="M29.3899 21.17L29.4999 12.63L30.9899 7.36002L32.3099 6.96002L32.3699 6.27002L34.0899 4.90002C34.0899 4.90002 47.8999 -1.05998 51.5599 7.31002C51.5599 7.31002 60.0999 10 55.8599 20.2C53.9099 23.12 54.4899 23.87 54.4899 23.87L53.9699 24.44L52.3099 15.5L38.8499 13.15L33.4099 17.22L32.0899 24.27L30.5999 24.16L29.3999 21.18L29.3899 21.17Z" fill="#5B5B5B"/>
<path d="M31.1599 29.2501C31.1599 29.2501 32.7099 40.2501 41.8699 42.1401C51.0399 44.0301 54.0099 28.9701 54.0099 28.9701C54.0099 28.9701 55.7899 29.4301 56.8199 25.8801C57.8499 22.3301 56.9899 20.4401 56.9899 20.4401C56.9899 20.4401 54.7599 20.1501 54.4699 23.8801C54.2399 24.5101 53.7299 24.2201 53.7299 24.2201L53.9599 16.2601C53.9599 16.2601 52.3599 9.33008 47.9999 11.7301C43.6399 14.1301 39.6899 12.1301 39.6899 12.1301C39.6899 12.1301 35.2199 10.1301 33.4499 13.5001C31.6799 16.8701 32.0799 24.2701 32.0799 24.2701L31.1099 24.0401C31.1099 24.0401 30.8199 18.7101 28.1299 20.4901C25.4399 22.2701 30.1899 30.8601 31.1699 29.2501H31.1599Z" fill="#EAC3AA"/>
</g>
<defs>
<clipPath id="clip0_143_303">
<rect width="140.47" height="252.95" fill="white"/>
</clipPath>
</defs>
</svg>
